<svg width="29" height="29" viewBox="0 0 29 29" fill="none" xmlns="http://www.w3.org/2000/svg">
<g filter="url(#filter0_b_318_635)">
<rect x="0.42308" y="0.166626" width="28.2692" height="28.2692" rx="14.1346" fill="white" fill-opacity="0.2"/>
<rect x="0.92308" y="0.666626" width="27.2692" height="27.2692" rx="13.6346" stroke="url(#paint0_linear_318_635)"/>
</g>
<g filter="url(#filter1_b_318_635)">
<mask id="path-3-inside-1_318_635" fill="white">
<path fill-rule="evenodd" clip-rule="evenodd" d="M17.3938 12.7508C17.4506 12.7753 17.5142 12.7786 17.5733 12.7601L20.4295 11.8625C20.4295 11.8625 20.5579 11.7788 20.6343 11.8551C20.7106 11.9314 20.6897 12.0352 20.6897 12.0352L19.3796 17.9139H10.1465L8.49763 12.0234C8.49763 12.0234 8.45713 11.9069 8.49763 11.8551C8.55116 11.7867 8.71987 11.8651 8.71987 11.8651L11.4165 12.7587C11.4747 12.778 11.538 12.7759 11.5948 12.7527C11.6517 12.7296 11.6983 12.6868 11.7265 12.6323L14.2192 7.79558C14.2192 7.79558 14.2849 7.58057 14.5902 7.58057C14.8192 7.58057 14.8934 7.79558 14.8934 7.79558L17.2641 12.6264C17.291 12.6821 17.337 12.7262 17.3938 12.7508ZM10.7876 18.4196C10.4504 18.4196 10.177 18.693 10.177 19.0302C10.177 19.3675 10.4504 19.6409 10.7876 19.6409H18.726C19.0633 19.6409 19.3367 19.3675 19.3367 19.0302C19.3367 18.693 19.0633 18.4196 18.726 18.4196H10.7876Z"/>
</mask>
<path fill-rule="evenodd" clip-rule="evenodd" d="M17.3938 12.7508C17.4506 12.7753 17.5142 12.7786 17.5733 12.7601L20.4295 11.8625C20.4295 11.8625 20.5579 11.7788 20.6343 11.8551C20.7106 11.9314 20.6897 12.0352 20.6897 12.0352L19.3796 17.9139H10.1465L8.49763 12.0234C8.49763 12.0234 8.45713 11.9069 8.49763 11.8551C8.55116 11.7867 8.71987 11.8651 8.71987 11.8651L11.4165 12.7587C11.4747 12.778 11.538 12.7759 11.5948 12.7527C11.6517 12.7296 11.6983 12.6868 11.7265 12.6323L14.2192 7.79558C14.2192 7.79558 14.2849 7.58057 14.5902 7.58057C14.8192 7.58057 14.8934 7.79558 14.8934 7.79558L17.2641 12.6264C17.291 12.6821 17.337 12.7262 17.3938 12.7508ZM10.7876 18.4196C10.4504 18.4196 10.177 18.693 10.177 19.0302C10.177 19.3675 10.4504 19.6409 10.7876 19.6409H18.726C19.0633 19.6409 19.3367 19.3675 19.3367 19.0302C19.3367 18.693 19.0633 18.4196 18.726 18.4196H10.7876Z" fill="url(#paint1_linear_318_635)"/>
<path d="M17.5733 12.7601L17.6332 12.9509L17.6332 12.9509L17.5733 12.7601ZM17.3938 12.7508L17.3144 12.9343L17.3144 12.9343L17.3938 12.7508ZM20.4295 11.8625L20.4895 12.0533L20.5157 12.045L20.5388 12.03L20.4295 11.8625ZM20.6343 11.8551L20.4928 11.9965L20.4928 11.9965L20.6343 11.8551ZM20.6897 12.0352L20.885 12.0787L20.8858 12.0746L20.6897 12.0352ZM19.3796 17.9139V18.1139H19.54L19.5748 17.9574L19.3796 17.9139ZM10.1465 17.9139L9.95393 17.9678L9.99482 18.1139H10.1465V17.9139ZM8.49763 12.0234L8.69059 11.9694L8.68655 11.9578L8.49763 12.0234ZM8.49763 11.8551L8.34011 11.7319L8.34011 11.7319L8.49763 11.8551ZM8.71987 11.8651L8.63559 12.0464L8.64603 12.0513L8.65695 12.0549L8.71987 11.8651ZM11.4165 12.7587L11.4794 12.5689L11.4794 12.5689L11.4165 12.7587ZM11.5948 12.7527L11.5193 12.5675L11.5193 12.5675L11.5948 12.7527ZM11.7265 12.6323L11.9042 12.724L11.9043 12.7239L11.7265 12.6323ZM14.2192 7.79558L14.3969 7.8872L14.4052 7.87123L14.4104 7.85405L14.2192 7.79558ZM14.8934 7.79558L14.7043 7.86078L14.7083 7.87253L14.7138 7.88369L14.8934 7.79558ZM17.2641 12.6264L17.4442 12.5394L17.4437 12.5383L17.2641 12.6264ZM17.5133 12.5693C17.5001 12.5734 17.4859 12.5727 17.4732 12.5672L17.3144 12.9343C17.4152 12.9779 17.5284 12.9838 17.6332 12.9509L17.5133 12.5693ZM20.3696 11.6717L17.5133 12.5693L17.6332 12.9509L20.4895 12.0533L20.3696 11.6717ZM20.7757 11.7137C20.6611 11.5991 20.5174 11.619 20.4505 11.6372C20.4132 11.6475 20.382 11.6613 20.3609 11.6719C20.3501 11.6774 20.341 11.6824 20.3343 11.6864C20.3309 11.6883 20.328 11.6901 20.3256 11.6915C20.3245 11.6923 20.3234 11.6929 20.3226 11.6935C20.3221 11.6938 20.3217 11.694 20.3213 11.6943C20.3211 11.6944 20.321 11.6945 20.3208 11.6946C20.3207 11.6947 20.3206 11.6947 20.3206 11.6948C20.3205 11.6948 20.3205 11.6948 20.3204 11.6948C20.3204 11.6949 20.3203 11.6949 20.4295 11.8625C20.5388 12.03 20.5387 12.03 20.5386 12.0301C20.5386 12.0301 20.5386 12.0301 20.5385 12.0302C20.5385 12.0302 20.5384 12.0302 20.5383 12.0303C20.5382 12.0304 20.5381 12.0305 20.5379 12.0305C20.5377 12.0307 20.5375 12.0308 20.5373 12.031C20.5369 12.0312 20.5366 12.0314 20.5364 12.0315C20.5359 12.0318 20.5359 12.0318 20.5361 12.0317C20.5367 12.0314 20.5383 12.0304 20.5407 12.0293C20.5461 12.0265 20.5517 12.0242 20.556 12.0231C20.5611 12.0217 20.5566 12.0239 20.5449 12.0225C20.5299 12.0206 20.5093 12.0129 20.4928 11.9965L20.7757 11.7137ZM20.6897 12.0352C20.8858 12.0746 20.8858 12.0745 20.8858 12.0745C20.8858 12.0744 20.8859 12.0743 20.8859 12.0743C20.8859 12.0742 20.8859 12.0741 20.8859 12.074C20.886 12.0737 20.886 12.0735 20.8861 12.0732C20.8862 12.0727 20.8863 12.0722 20.8864 12.0717C20.8866 12.0706 20.8868 12.0693 20.887 12.068C20.8875 12.0653 20.888 12.0621 20.8885 12.0585C20.8895 12.0514 20.8906 12.0423 20.8913 12.0317C20.8928 12.0108 20.8932 11.9824 20.8891 11.9496C20.8812 11.8841 20.8544 11.7924 20.7757 11.7137L20.4928 11.9965C20.4905 11.9942 20.4914 11.9924 20.4921 11.998C20.4924 12.0006 20.4923 12.0029 20.4923 12.0039C20.4923 12.0042 20.4923 12.0039 20.4924 12.0027C20.4925 12.0021 20.4927 12.0012 20.4928 12.0001C20.4929 11.9995 20.4931 11.9989 20.4932 11.9982C20.4933 11.9978 20.4933 11.9974 20.4934 11.997C20.4934 11.9968 20.4935 11.9966 20.4935 11.9964C20.4935 11.9963 20.4936 11.9962 20.4936 11.9961C20.4936 11.9961 20.4936 11.996 20.4936 11.996C20.4936 11.9959 20.4937 11.9958 20.6897 12.0352ZM19.5748 17.9574L20.8849 12.0787L20.4945 11.9917L19.1844 17.8704L19.5748 17.9574ZM10.1465 18.1139H19.3796V17.7139H10.1465V18.1139ZM8.30503 12.0773L9.95393 17.9678L10.3391 17.86L8.69023 11.9695L8.30503 12.0773ZM8.34011 11.7319C8.29818 11.7855 8.28565 11.8439 8.28162 11.8825C8.27743 11.9227 8.28058 11.9597 8.28443 11.9868C8.28843 12.0149 8.29423 12.0394 8.29883 12.0565C8.30119 12.0652 8.30337 12.0725 8.30509 12.078C8.30595 12.0808 8.30671 12.0831 8.30732 12.085C8.30763 12.0859 8.3079 12.0867 8.30813 12.0874C8.30825 12.0877 8.30836 12.088 8.30845 12.0883C8.3085 12.0885 8.30855 12.0886 8.30859 12.0887C8.30861 12.0888 8.30863 12.0888 8.30866 12.0889C8.30867 12.0889 8.30868 12.089 8.30869 12.089C8.3087 12.089 8.30871 12.0891 8.49763 12.0234C8.68655 11.9578 8.68656 11.9578 8.68658 11.9578C8.68658 11.9579 8.68659 11.9579 8.6866 11.9579C8.68662 11.958 8.68664 11.958 8.68666 11.9581C8.68669 11.9582 8.68672 11.9583 8.68675 11.9584C8.68681 11.9585 8.68686 11.9587 8.6869 11.9588C8.68698 11.959 8.68703 11.9592 8.68705 11.9592C8.68709 11.9594 8.68702 11.9591 8.68685 11.9586C8.68651 11.9575 8.68585 11.9553 8.68504 11.9523C8.68331 11.9459 8.68152 11.938 8.68045 11.9305C8.67925 11.922 8.67986 11.9202 8.67946 11.924C8.67924 11.9262 8.67683 11.9506 8.65515 11.9783L8.34011 11.7319ZM8.71987 11.8651C8.80415 11.6837 8.80411 11.6837 8.80407 11.6837C8.80405 11.6837 8.80401 11.6836 8.80398 11.6836C8.80392 11.6836 8.80386 11.6836 8.80379 11.6835C8.80366 11.6835 8.80352 11.6834 8.80337 11.6833C8.80307 11.6832 8.80272 11.683 8.80233 11.6829C8.80155 11.6825 8.8006 11.6821 8.79949 11.6816C8.79727 11.6806 8.79438 11.6793 8.79091 11.6778C8.78398 11.6749 8.77456 11.671 8.76325 11.6668C8.74123 11.6585 8.70922 11.6476 8.67292 11.6393C8.63862 11.6316 8.58899 11.6235 8.53556 11.6287C8.48198 11.634 8.39976 11.6556 8.34011 11.7319L8.65515 11.9783C8.62227 12.0204 8.58121 12.0262 8.57432 12.0269C8.56758 12.0275 8.57016 12.0262 8.58473 12.0295C8.5973 12.0323 8.61081 12.0368 8.6221 12.041C8.62744 12.043 8.63161 12.0448 8.63412 12.0458C8.63537 12.0464 8.63616 12.0467 8.63643 12.0468C8.63657 12.0469 8.63657 12.0469 8.63643 12.0468C8.63637 12.0468 8.63626 12.0468 8.63612 12.0467C8.63605 12.0467 8.63597 12.0466 8.63588 12.0466C8.63584 12.0466 8.63579 12.0465 8.63574 12.0465C8.63572 12.0465 8.63568 12.0465 8.63567 12.0465C8.63563 12.0465 8.63559 12.0464 8.71987 11.8651ZM11.4794 12.5689L8.78278 11.6752L8.65695 12.0549L11.3535 12.9486L11.4794 12.5689ZM11.5193 12.5675C11.5066 12.5727 11.4924 12.5732 11.4794 12.5689L11.3535 12.9486C11.457 12.9829 11.5694 12.9791 11.6703 12.9379L11.5193 12.5675ZM11.5487 12.5406C11.5424 12.5528 11.532 12.5624 11.5193 12.5675L11.6703 12.9379C11.7713 12.8967 11.8543 12.8209 11.9042 12.724L11.5487 12.5406ZM14.0414 7.70396L11.5487 12.5407L11.9043 12.7239L14.3969 7.8872L14.0414 7.70396ZM14.5902 7.38057C14.3848 7.38057 14.2417 7.45512 14.1499 7.54555C14.106 7.58873 14.077 7.6324 14.0584 7.66663C14.0491 7.68382 14.0422 7.69894 14.0373 7.71092C14.0349 7.71693 14.0329 7.72219 14.0314 7.72658C14.0306 7.72878 14.0299 7.73077 14.0294 7.73252C14.0291 7.7334 14.0288 7.73423 14.0286 7.73499C14.0284 7.73537 14.0283 7.73574 14.0282 7.73609C14.0282 7.73627 14.0281 7.73644 14.0281 7.73661C14.028 7.7367 14.028 7.73682 14.028 7.73686C14.0279 7.73699 14.0279 7.73711 14.2192 7.79558C14.4104 7.85405 14.4104 7.85417 14.4104 7.85429C14.4103 7.85433 14.4103 7.85445 14.4103 7.85452C14.4102 7.85468 14.4102 7.85483 14.4101 7.85498C14.41 7.85529 14.41 7.85558 14.4099 7.85585C14.4097 7.85641 14.4095 7.85693 14.4094 7.8574C14.4091 7.85834 14.4088 7.85912 14.4086 7.85974C14.4081 7.86099 14.4079 7.86163 14.4078 7.86176C14.4077 7.86198 14.4084 7.8603 14.41 7.85734C14.4133 7.85125 14.4198 7.84117 14.4305 7.83059C14.4479 7.81352 14.4903 7.78057 14.5902 7.78057V7.38057ZM14.8934 7.79558C15.0824 7.73037 15.0824 7.73029 15.0824 7.7302C15.0824 7.73016 15.0823 7.73007 15.0823 7.73001C15.0823 7.72989 15.0822 7.72976 15.0822 7.72963C15.0821 7.72936 15.082 7.72909 15.0819 7.7288C15.0817 7.72821 15.0814 7.72757 15.0812 7.72688C15.0807 7.72549 15.0801 7.72388 15.0794 7.72206C15.078 7.71843 15.0763 7.71395 15.0741 7.70875C15.0697 7.69837 15.0636 7.68491 15.0555 7.66938C15.0395 7.63872 15.0145 7.59775 14.978 7.55617C14.9031 7.47077 14.7761 7.38057 14.5902 7.38057V7.78057C14.6333 7.78057 14.6579 7.79787 14.6773 7.81998C14.688 7.83214 14.6959 7.84493 14.7009 7.85458C14.7033 7.85921 14.7048 7.86255 14.7054 7.86393C14.7057 7.86461 14.7057 7.86475 14.7055 7.86427C14.7054 7.86402 14.7053 7.86362 14.7051 7.86305C14.705 7.86276 14.7049 7.86243 14.7047 7.86205C14.7047 7.86186 14.7046 7.86166 14.7045 7.86145C14.7045 7.86135 14.7044 7.86124 14.7044 7.86113C14.7044 7.86107 14.7044 7.86098 14.7043 7.86096C14.7043 7.86087 14.7043 7.86078 14.8934 7.79558ZM17.4437 12.5383L15.0729 7.70747L14.7138 7.88369L17.0846 12.7145L17.4437 12.5383ZM17.4732 12.5672C17.4605 12.5617 17.4502 12.5518 17.4442 12.5394L17.084 12.7134C17.1318 12.8123 17.2136 12.8907 17.3144 12.9343L17.4732 12.5672ZM10.377 19.0302C10.377 18.8034 10.5608 18.6196 10.7876 18.6196V18.2196C10.3399 18.2196 9.97697 18.5825 9.97697 19.0302H10.377ZM10.7876 19.4409C10.5608 19.4409 10.377 19.257 10.377 19.0302H9.97697C9.97697 19.4779 10.3399 19.8409 10.7876 19.8409V19.4409ZM18.726 19.4409H10.7876V19.8409H18.726V19.4409ZM19.1367 19.0302C19.1367 19.257 18.9528 19.4409 18.726 19.4409V19.8409C19.1738 19.8409 19.5367 19.4779 19.5367 19.0302H19.1367ZM18.726 18.6196C18.9528 18.6196 19.1367 18.8034 19.1367 19.0302H19.5367C19.5367 18.5825 19.1738 18.2196 18.726 18.2196V18.6196ZM10.7876 18.6196H18.726V18.2196H10.7876V18.6196Z" fill="url(#paint2_linear_318_635)" mask="url(#path-3-inside-1_318_635)"/>
</g>
<defs>
<filter id="filter0_b_318_635" x="-24.5769" y="-24.8334" width="78.2692" height="78.2693" filterUnits="userSpaceOnUse" color-interpolation-filters="sRGB">
<feFlood flood-opacity="0" result="BackgroundImageFix"/>
<feGaussianBlur in="BackgroundImageFix" stdDeviation="12.5"/>
<feComposite in2="SourceAlpha" operator="in" result="effect1_backgroundBlur_318_635"/>
<feBlend mode="normal" in="SourceGraphic" in2="effect1_backgroundBlur_318_635" result="shape"/>
</filter>
<filter id="filter1_b_318_635" x="-16.5204" y="-17.4194" width="62.2127" height="62.0603" filterUnits="userSpaceOnUse" color-interpolation-filters="sRGB">
<feFlood flood-opacity="0" result="BackgroundImageFix"/>
<feGaussianBlur in="BackgroundImageFix" stdDeviation="12.5"/>
<feComposite in2="SourceAlpha" operator="in" result="effect1_backgroundBlur_318_635"/>
<feBlend mode="normal" in="SourceGraphic" in2="effect1_backgroundBlur_318_635" result="shape"/>
</filter>
<linearGradient id="paint0_linear_318_635" x1="25.6196" y1="24.134" x2="2.06141" y2="6.97413" gradientUnits="userSpaceOnUse">
<stop stop-color="white" stop-opacity="0"/>
<stop offset="1" stop-color="white" stop-opacity="0.2"/>
</linearGradient>
<linearGradient id="paint1_linear_318_635" x1="11.6" y1="12.7742" x2="19.0638" y2="19.9394" gradientUnits="userSpaceOnUse">
<stop stop-color="white"/>
<stop offset="1" stop-color="white" stop-opacity="0.2"/>
</linearGradient>
<linearGradient id="paint2_linear_318_635" x1="12.9579" y1="10.5661" x2="18.9289" y2="21.0154" gradientUnits="userSpaceOnUse">
<stop stop-color="white"/>
<stop offset="1" stop-color="white" stop-opacity="0"/>
</linearGradient>
</defs>
</svg>
