<svg width="34" height="34" viewBox="0 0 34 34" fill="none" xmlns="http://www.w3.org/2000/svg">
<g clip-path="url(#clip0_1_2567)">
<path d="M16.501 34C25.8898 34 33.501 26.3888 33.501 17C33.501 7.61116 25.8898 0 16.501 0C7.11213 0 -0.499023 7.61116 -0.499023 17C-0.499023 26.3888 7.11213 34 16.501 34Z" fill="#0052B4"/>
<path d="M16.5012 6.65216L17.0516 8.34612H18.8327L17.3917 9.39301L17.9422 11.087L16.5012 10.04L15.0602 11.087L15.6106 9.39301L14.1697 8.34612H15.9508L16.5012 6.65216Z" fill="#FFDA44"/>
<path d="M9.1841 9.68294L10.7712 10.4915L12.0306 9.23218L11.7519 10.9913L13.3389 11.7999L11.5798 12.0785L11.3011 13.8378L10.4925 12.2507L8.7334 12.5294L9.99279 11.2701L9.1841 9.68294Z" fill="#FFDA44"/>
<path d="M6.15332 17L7.84728 16.4495V14.6685L8.89411 16.1095L10.5881 15.559L9.5411 17L10.5881 18.4409L8.89411 17.8906L7.84728 19.3315V17.5504L6.15332 17Z" fill="#FFDA44"/>
<path d="M9.1841 24.317L9.99273 22.7299L8.7334 21.4705L10.4926 21.7493L11.3011 20.1622L11.5798 21.9214L13.3389 22.2L11.752 23.0087L12.0306 24.7678L10.7712 23.5084L9.1841 24.317Z" fill="#FFDA44"/>
<path d="M16.5012 27.3478L15.9507 25.6539H14.1697L15.6107 24.607L15.0602 22.9131L16.5012 23.96L17.9422 22.9131L17.3917 24.607L18.8327 25.6539H17.0516L16.5012 27.3478Z" fill="#FFDA44"/>
<path d="M23.8183 24.317L22.2312 23.5084L20.9718 24.7678L21.2505 23.0086L19.6636 22.2L21.4227 21.9214L21.7013 20.1622L22.5099 21.7493L24.269 21.4705L23.0096 22.73L23.8183 24.317Z" fill="#FFDA44"/>
<path d="M26.849 17L25.155 17.5504V19.3315L24.1081 17.8905L22.4143 18.4409L23.4612 17L22.4143 15.559L24.1082 16.1095L25.155 14.6685V16.4496L26.849 17Z" fill="#FFDA44"/>
<path d="M23.8183 9.68294L23.0097 11.27L24.269 12.5294L22.5098 12.2507L21.7013 13.8377L21.4227 12.0785L19.6636 11.7998L21.2505 10.9913L20.9718 9.23224L22.2313 10.4916L23.8183 9.68294Z" fill="#FFDA44"/>
</g>
<defs>
<clipPath id="clip0_1_2567">
<rect width="34" height="34" fill="white" transform="translate(-0.499023)"/>
</clipPath>
</defs>
</svg>
