<svg width="45" height="28" viewBox="0 0 45 28" fill="none" xmlns="http://www.w3.org/2000/svg">
<path d="M27.2951 13.806C27.2951 21.4308 21.1849 27.6119 13.6475 27.6119C6.11021 27.6119 0 21.4308 0 13.806C0 6.18114 6.11021 0 13.6475 0C21.1849 0 27.2951 6.18114 27.2951 13.806Z" fill="#ED0006"/>
<path d="M45 13.806C45 21.4308 38.8898 27.6119 31.3524 27.6119C23.8151 27.6119 17.7049 21.4308 17.7049 13.806C17.7049 6.18114 23.8151 0 31.3524 0C38.8898 0 45 6.18114 45 13.806Z" fill="#0099DF"/>
<path fill-rule="evenodd" clip-rule="evenodd" d="M22.5 3.2981C25.4344 5.83036 27.2951 9.59835 27.2951 13.806C27.2951 18.0136 25.4344 21.7815 22.5 24.3138C19.5657 21.7815 17.705 18.0136 17.705 13.806C17.705 9.59835 19.5657 5.83036 22.5 3.2981Z" fill="#6C6BBD"/>
</svg>
