<svg width="29" height="32" viewBox="0 0 29 32" fill="none" xmlns="http://www.w3.org/2000/svg">
<path fill-rule="evenodd" clip-rule="evenodd" d="M4.28497 13.8048L14.1351 4.11778C14.1829 4.07038 14.2397 4.03275 14.3023 4.00708C14.365 3.9814 14.4321 3.96818 14.5 3.96818C14.5679 3.96818 14.635 3.9814 14.6977 4.00708C14.7603 4.03275 14.8171 4.07038 14.8649 4.11778L24.715 13.8048C24.7632 13.8518 24.8015 13.9077 24.8276 13.9692C24.8537 14.0308 24.8671 14.0969 24.8671 14.1636C24.8671 14.2304 24.8537 14.2964 24.8276 14.358C24.8015 14.4196 24.7632 14.4755 24.715 14.5225L22.2688 16.9282C22.221 16.9756 22.1642 17.0132 22.1016 17.0389C22.0389 17.0646 21.9718 17.0778 21.9039 17.0778C21.8361 17.0778 21.7689 17.0646 21.7062 17.0389C21.6436 17.0132 21.5868 16.9756 21.539 16.9282L14.4857 9.99173L7.43245 16.9282C7.38469 16.9756 7.32785 17.0132 7.26522 17.0389C7.20259 17.0646 7.13541 17.0778 7.06755 17.0778C6.9997 17.0778 6.93252 17.0646 6.86989 17.0389C6.80726 17.0132 6.75042 16.9756 6.70266 16.9282L4.25643 14.5225C4.20774 14.4758 4.16904 14.42 4.14261 14.3584C4.11619 14.2967 4.10257 14.2305 4.10257 14.1636C4.10257 14.0968 4.11619 14.0305 4.14261 13.9689C4.16904 13.9073 4.20774 13.8515 4.25643 13.8048M9.50358 23.6361H13.5399L9.14888 19.3059C9.10068 19.2589 9.06243 19.203 9.03632 19.1414C9.01021 19.0798 8.99676 19.0137 8.99676 18.947C8.99676 18.8803 9.01021 18.8142 9.03632 18.7526C9.06243 18.691 9.10068 18.6351 9.14888 18.5881L11.5951 16.1824C11.6429 16.135 11.6997 16.0974 11.7623 16.0717C11.825 16.0461 11.8921 16.0328 11.96 16.0328C12.0279 16.0328 12.095 16.0461 12.1577 16.0717C12.2203 16.0974 12.2771 16.135 12.3249 16.1824L14.5183 18.3396L16.7159 16.1985C16.7636 16.1511 16.8205 16.1134 16.8831 16.0878C16.9457 16.0621 17.0129 16.0489 17.0808 16.0489C17.1486 16.0489 17.2158 16.0621 17.2784 16.0878C17.3411 16.1134 17.3979 16.1511 17.4457 16.1985L19.8919 18.6042C19.9401 18.6512 19.9783 18.7071 20.0045 18.7686C20.0306 18.8302 20.044 18.8963 20.044 18.963C20.044 19.0298 20.0306 19.0958 20.0045 19.1574C19.9783 19.219 19.9401 19.2749 19.8919 19.3219L15.4601 23.6361H19.4964C19.6337 23.6361 19.7654 23.6898 19.8625 23.7853C19.9596 23.8808 20.0142 24.0103 20.0142 24.1453V27.5254C20.0158 27.5932 20.0036 27.6608 19.9784 27.7239C19.9531 27.7871 19.9152 27.8447 19.8669 27.8932C19.8187 27.9418 19.7611 27.9804 19.6974 28.0067C19.6338 28.0331 19.5655 28.0466 19.4964 28.0466H9.50358C9.36734 28.0466 9.23668 27.9934 9.14034 27.8986C9.044 27.8039 8.98988 27.6754 8.98988 27.5414V24.1413C8.99094 24.0077 9.04541 23.8798 9.14152 23.7853C9.23763 23.6907 9.36767 23.6372 9.50358 23.6361ZM0.558555 0H28.4414C28.5893 0.00104957 28.7307 0.0592596 28.8352 0.162048C28.9397 0.264835 28.9989 0.403944 29 0.549305V31.4507C28.9989 31.5961 28.9397 31.7352 28.8352 31.838C28.7307 31.9407 28.5893 31.999 28.4414 32H0.558555C0.410747 31.999 0.269295 31.9407 0.164776 31.838C0.0602575 31.7352 0.00106725 31.5961 0 31.4507L0 0.549305C0.00106725 0.403944 0.0602575 0.264835 0.164776 0.162048C0.269295 0.0592596 0.410747 0.00104957 0.558555 0Z" fill="#660099"/>
</svg>
